HIERARCHY
ROOT ui
{
	 OFFSET 0 0 0
	 CHANNELS 3 XPosition YPosition Z Position
	 EndSite
	 {
	 OFFSET 0 -1 0
	 }
}
ROOT li
{
	 OFFSET 0 0 0
	 CHANNELS 3 XPosition YPosition Z Position
	 EndSite
	 {
	 OFFSET 0 -1 0
	 }
}
ROOT ul
{
	 OFFSET 0 0 0
	 CHANNELS 3 XPosition YPosition Z Position
	 EndSite
	 {
	 OFFSET 0 -1 0
	 }
}
ROOT ll
{
	 OFFSET 0 0 0
	 CHANNELS 3 XPosition YPosition Z Position
	 EndSite
	 {
	 OFFSET 0 -1 0
	 }
}
ROOT tt
{
	 OFFSET 0 0 0
	 CHANNELS 3 XPosition YPosition Z Position
	 EndSite
	 {
	 OFFSET 0 -1 0
	 }
}
ROOT tb
{
	 OFFSET 0 0 0
	 CHANNELS 3 XPosition YPosition Z Position
	 EndSite
	 {
	 OFFSET 0 -1 0
	 }
}
ROOT td
{
	 OFFSET 0 0 0
	 CHANNELS 3 XPosition YPosition Z Position
	 EndSite
	 {
	 OFFSET 0 -1 0
	 }
}
ROOT v
{
	 OFFSET 0 0 0
	 CHANNELS 3 XPosition YPosition Z Position
	 EndSite
	 {
	 OFFSET 0 -1 0
	 }
}
ROOT bn
{
	 OFFSET 0 0 0
	 CHANNELS 3 XPosition YPosition Z Position
	 EndSite
	 {
	 OFFSET 0 -1 0
	 }
}
MOTION
Frames: 16
Frame Time: 0.002
0.03696429824829101	-0.002954169988632202	0		0.42792721557617186	-2.402342041015625	0		-0.9541973266601562	0.3558321533203125	0		-0.6941898193359375	-2.591165771484375	0		1.6082017822265624	-0.5420514526367187	0		3.147423095703125	-0.16174673461914063	0		4.47109375	-0.015114681243896484	0		5.90501708984375	0.33833209228515626	0		-0.15466822814941406	5.9244765625	0		
0.04077099227905273	1.1253199726343155E-4	0		0.4566949462890625	-2.402547607421875	0		-0.880241943359375	0.3721396484375	0		-0.6883450927734375	-2.584119384765625	0		1.60304052734375	-0.5358903198242188	0		3.1578271484375	-0.19576023864746095	0		4.456814453125	-0.01986103057861328	0		5.90069482421875	0.3294744262695313	0		-0.15488177490234376	5.92458740234375	0		
-0.012362422943115235	0.0017806780338287353	0		0.42754708862304686	-2.402140380859375	0		-0.8745305786132812	0.35916845703125	0		-0.6994072265625	-2.5759072265625	0		1.5969581298828126	-0.5297344970703125	0		3.180786865234375	-0.18592111206054687	0		4.4664384765625	-0.040880012512207034	0		5.89565673828125	0.33961526489257815	0		-0.1360792694091797	5.91947412109375	0		
-0.01648111343383789	-0.0021003360748291016	0		0.4803941345214844	-2.40964013671875	0		-0.8695631713867188	0.3631885986328125	0		-0.7053501586914063	-2.56376806640625	0		1.5919376220703125	-0.5246040649414062	0		3.159571533203125	-0.1986146697998047	0		4.45822216796875	-0.0537138786315918	0		5.89638525390625	0.3216849365234375	0		-0.13615892028808593	5.91954931640625	0		
-0.0434896125793457	-0.0017481199502944946	0		0.42544821166992186	-2.403982666015625	0		-0.9455697631835938	0.3640706481933594	0		-0.7033316650390625	-2.561732666015625	0		1.5888966064453125	-0.5275079345703125	0		3.1694091796875	-0.21265475463867187	0		4.471048828125	-0.06878292083740234	0		5.8963740234375	0.3217601318359375	0		-0.13618527221679688	5.91960791015625	0		
0.04059049224853516	3.834039866924286E-4	0		0.46442388916015626	-2.412359619140625	0		-0.9255311889648438	0.36289251708984377	0		-0.7222322998046875	-2.558486572265625	0		1.59502734375	-0.520521484375	0		3.194211669921875	-0.23586468505859376	0		4.455037109375	-0.0745420913696289	0		5.90459814453125	0.3377464904785156	0		-0.16924813842773437	5.912009765625	0		
-0.036245983123779295	0.005248514175415039	0		0.43374478149414064	-2.394990966796875	0		-0.92541845703125	0.3629149475097656	0		-0.68896826171875	-2.546821044921875	0		1.5981903076171875	-0.5165119018554688	0		3.196513427734375	-0.21883241271972656	0		4.4799892578125	-0.08974747467041015	0		5.91371044921875	0.3377252197265625	0		-0.15404991149902345	5.92387451171875	0		
0.040886177062988284	4.306400120258331E-4	0		0.4828293151855469	-2.406499755859375	0		-0.925242431640625	0.36292141723632815	0		-0.7257361450195312	-2.5444111328125	0		1.592289794921875	-0.5244120483398438	0		3.168448486328125	-0.24147554016113282	0		4.4671279296875	-0.0935400619506836	0		5.9048876953125	0.3379049072265625	0		-0.13597981262207032	5.91969482421875	0		
-0.015897820472717285	-0.0019475879669189453	0		0.45513296508789064	-2.404185791015625	0		-0.854050048828125	0.3581439208984375	0		-0.6604034423828125	-2.540121337890625	0		1.6125413818359375	-0.5246010131835938	0		3.198587158203125	-0.25174908447265626	0		4.4712333984375	-0.10651304626464844	0		5.896955078125	0.3220830078125	0		-0.0025802130699157716	5.94125634765625	0		
-0.015587982177734374	-0.0019560149908065794	0		0.4534649963378906	-2.406163818359375	0		-0.9246994018554687	0.3628870544433594	0		-0.7210438842773438	-2.539482666015625	0		1.595905029296875	-0.5203963623046876	0		3.188837158203125	-0.25759063720703124	0		4.46139453125	-0.12033098602294921	0		5.892345703125	0.3302357177734375	0		-0.13561923217773436	5.9196865234375	0		
0.041814994812011716	4.089069962501526E-4	0		0.4559111328125	-2.40419580078125	0		-0.9243331298828125	0.36284756469726565	0		-0.714552001953125	-2.533582763671875	0		1.5962899169921876	-0.5203826904296875	0		3.208258544921875	-0.2537483978271484	0		4.4786728515625	-0.12943955993652342	0		5.91070068359375	0.3291460876464844	0		-0.16844383239746094	5.91301953125	0		
0.042250961303710935	3.78807008266449E-4	0		0.46045599365234374	-2.399259765625	0		-0.9188627319335938	0.3667412109375	0		-0.715885498046875	-2.517609619140625	0		1.5997806396484375	-0.5164094848632812	0		3.1905185546875	-0.270510986328125	0		4.47504736328125	-0.13532418823242187	0		5.9062265625	0.3383042907714844	0		-0.16913308715820313	5.91399560546875	0		
-0.010244432449340821	0.0019073820114135743	0		0.4589721374511719	-2.4022685546875	0		-0.92342333984375	0.3627317810058594	0		-0.7153344116210938	-2.517668212890625	0		1.5972410888671875	-0.5203801879882812	0		3.22201416015625	-0.270808837890625	0		4.47533740234375	-0.15425741577148439	0		5.906708984375	0.3384042053222656	0		-0.1687837371826172	5.9139501953125	0		
-0.013754130363464356	-0.002100795030593872	0		0.43056451416015623	-2.401997802734375	0		-0.9228991088867188	0.3626585693359375	0		-0.7226333618164062	-2.5076513671875	0		1.6147427978515625	-0.5245746459960937	0		3.2113828125	-0.2866636657714844	0		4.47281005859375	-0.16016836547851562	0		5.90723388671875	0.33849520874023437	0		-0.1343306121826172	5.9195302734375	0		
-0.013192957878112792	-0.002161135911941528	0		0.4581591491699219	-2.404336181640625	0		-0.9223464965820313	0.36257687377929687	0		-0.7199813842773437	-2.504749755859375	0		1.5953173828125	-0.5243829956054687	0		3.21687548828125	-0.2937012634277344	0		4.47422509765625	-0.1741331787109375	0		5.907787109375	0.338573974609375	0		-0.16797076416015624	5.9138310546875	0		
-0.03961335372924805	-0.0019416220188140868	0		0.435866943359375	-2.397149169921875	0		-0.921776611328125	0.3624880676269531	0		-0.77731201171875	-2.501215576171875	0		1.6128634033203124	-0.5285965576171875	0		3.215268310546875	-0.3116750793457031	0		4.4797109375	-0.18315403747558595	0		5.91734619140625	0.33754208374023437	0		-0.16654646301269532	5.91174853515625	0		
